<svg width="64" height="64" viewBox="0 0 64 64" fill="none" xmlns="http://www.w3.org/2000/svg">
    <path d="M17.259 10.6667L10.6666 17.2591V46.7411L17.2591 53.3334H46.7408L53.3333 46.7411V17.2591L46.741 10.6667H17.259ZM28.9552 43.8014H23.0547C23.0547 38.9206 19.0845 34.9505 14.2037 34.9505V29.0497C19.0845 29.0497 23.0547 25.0796 23.0547 20.1989H28.9552C28.9552 25.0412 26.5782 29.3089 22.9634 32.0001C26.5782 34.6915 28.9552 38.959 28.9552 43.8014ZM49.7778 34.9505C44.897 34.9505 40.9269 38.9206 40.9269 43.8014H35.0261C35.0261 38.959 37.4034 34.6915 41.0181 32.0001C37.4034 29.3089 35.0261 25.0412 35.0261 20.1989H40.9269C40.9269 25.0796 44.897 29.0497 49.7778 29.0497V34.9505Z" fill="#D6FF79"/>
</svg>
